<svg width="66" height="64" viewBox="0 0 66 64" fill="none" xmlns="http://www.w3.org/2000/svg">
<path d="M45.24 22.5101C41.95 20.2401 36.82 19.0801 33.08 19.0801C29.34 19.0801 24.21 20.2501 20.92 22.5101" stroke="black" stroke-width="2.75" stroke-linecap="round" stroke-linejoin="round"/>
<path fill-rule="evenodd" clip-rule="evenodd" d="M33.08 19.09C31.2443 19.1701 29.4592 18.4766 28.159 17.1782C26.8588 15.8799 26.1626 14.0958 26.24 12.26V8.84C26.24 5.06237 29.3024 2 33.08 2C36.8576 2 39.92 5.06237 39.92 8.84V12.26C39.9974 14.0958 39.3013 15.8799 38.0011 17.1782C36.7008 18.4766 34.9157 19.1701 33.08 19.09V19.09Z" stroke="black" stroke-width="2.75" stroke-linecap="round" stroke-linejoin="round"/>
<path d="M24.5 47.6401L30.43 53.5701L24.5 47.6401Z" fill="white"/>
<path d="M24.5 47.6401L30.43 53.5701" stroke="black" stroke-width="2.75" stroke-linecap="round" stroke-linejoin="round"/>
<path d="M19.23 42.3701L20.77 43.9101L19.23 42.3701Z" fill="white"/>
<path d="M19.23 42.3701L20.77 43.9101" stroke="black" stroke-width="2.75" stroke-linecap="round" stroke-linejoin="round"/>
<path d="M12.91 17.11L9.34998 13.54L12.91 17.11Z" fill="white"/>
<path d="M12.91 17.11L9.34998 13.54" stroke="black" stroke-width="2.75" stroke-linecap="round" stroke-linejoin="round"/>
<path d="M6.66 22.8602L2 20.9302L6.66 22.8602Z" fill="white"/>
<path d="M6.66 22.8602L2 20.9302" stroke="black" stroke-width="2.75" stroke-linecap="round" stroke-linejoin="round"/>
<path d="M53.25 17.11L56.81 13.54L53.25 17.11Z" fill="white"/>
<path d="M53.25 17.11L56.81 13.54" stroke="black" stroke-width="2.75" stroke-linecap="round" stroke-linejoin="round"/>
<path d="M59.5 22.8602L64.16 20.9302L59.5 22.8602Z" fill="white"/>
<path d="M59.5 22.8602L64.16 20.9302" stroke="black" stroke-width="2.75" stroke-linecap="round" stroke-linejoin="round"/>
<path d="M11.69 41.4302C12.0172 41.8864 12.3818 42.3145 12.78 42.7102L33.08 63.0202V63.0202L53.38 42.7102C53.7782 42.3145 54.1428 41.8864 54.47 41.4302" stroke="black" stroke-width="2.75" stroke-linecap="round" stroke-linejoin="round"/>
<path d="M56.69 32.43C56.2941 29.9819 55.1358 27.7212 53.38 25.97V25.97C48.7601 21.3501 41.2699 21.3501 36.65 25.97L33.08 29.51L29.51 25.94C24.8901 21.3201 17.3999 21.3201 12.78 25.94V25.94C11.0242 27.6912 9.86584 29.9519 9.46997 32.4" stroke="black" stroke-width="2.75" stroke-linecap="round" stroke-linejoin="round"/>
<path fill-rule="evenodd" clip-rule="evenodd" d="M55.73 32.3301C53.1619 32.3301 51.08 34.412 51.08 36.9801C51.08 39.5482 53.1619 41.6301 55.73 41.6301C58.2981 41.6301 60.38 39.5482 60.38 36.9801C60.38 34.412 58.2981 32.3301 55.73 32.3301Z" stroke="black" stroke-width="2.75" stroke-linecap="round" stroke-linejoin="round"/>
<path fill-rule="evenodd" clip-rule="evenodd" d="M10.43 32.3301C7.86191 32.3301 5.78003 34.412 5.78003 36.9801C5.78003 39.5482 7.86191 41.6301 10.43 41.6301C12.9982 41.6301 15.08 39.5482 15.08 36.9801C15.08 34.412 12.9982 32.3301 10.43 32.3301Z" stroke="black" stroke-width="2.75" stroke-linecap="round" stroke-linejoin="round"/>
</svg>
