<svg xmlns="http://www.w3.org/2000/svg" width="134" height="134" viewBox="0 0 134 134">
  <g id="avatar_mobile_loggedout" transform="translate(-1421 -454)">
    <g id="Path_26815" data-name="Path 26815" transform="translate(1421 454)" fill="#fff">
      <path d="M 66.99999237060547 8.000007629394531 C 34.46729278564453 8.000007629394531 7.999992370605469 34.46730804443359 7.999992370605469 67.00003051757812 C 7.999992370605469 99.53276062011719 34.46729278564453 126.0000534057617 66.99999237060547 126.0000534057617 C 99.53269195556641 126.0000534057617 125.9999923706055 99.53276062011719 125.9999923706055 67.00003051757812 C 125.9999923706055 34.46730804443359 99.53269195556641 8.000007629394531 66.99999237060547 8.000007629394531 M 66.99999237060547 0 C 104.0030670166016 0 134 29.99693298339844 134 67.00003051757812 C 134 104.0031280517578 104.0030670166016 134.0000610351562 66.99999237060547 134.0000610351562 C 29.99691772460938 134.0000610351562 -1.52587890625e-05 104.0031280517578 -1.52587890625e-05 67.00003051757812 C -1.52587890625e-05 29.99693298339844 29.99691772460938 0 66.99999237060547 0 Z" stroke="none" fill="#000"/>
    </g>
    <path id="Path_26743" data-name="Path 26743" d="M229.96,147.148A22.648,22.648,0,1,0,252.609,169.8a22.648,22.648,0,0,0-22.648-22.648" transform="translate(1258.14 338.405)"/>
    <path id="Path_26744" data-name="Path 26744" d="M130.617,56.654a35.556,35.556,0,0,1-5.473-.423,59.091,59.091,0,0,1-18.379,54.494l-.122-.048c-1.106-23.235-22.561-32-23.881-32.519a25.812,25.812,0,0,1-31.395-.052s-22.961,8.636-24.016,32.723A59.1,59.1,0,0,1,95.846,15.4a35.022,35.022,0,0,1,2.271-7.768A67.015,67.015,0,0,0,19.624,114.376,67,67,0,0,0,134,67a67.9,67.9,0,0,0-.808-10.44q-1.276.092-2.575.094" transform="translate(1421 454)"/>
  </g>
</svg>