<?xml version="1.0" encoding="UTF-8"?>
<svg id="Layer_1" xmlns="http://www.w3.org/2000/svg" version="1.1" viewBox="0 0 269.5 114.4">
  <!-- Generator: Adobe Illustrator 29.7.1, SVG Export Plug-In . SVG Version: 2.1.1 Build 8)  -->
  <defs>
    <style>
      .st0 {
        fill: #0373f3;
      }
    </style>
  </defs>
  <g>
    <g>
      <path class="st0" d="M163.1,52l-12.4-26.2h0c-.5-1.4-2.4-2.5-3.9-2.5h-13.9s3.7,3.5,2.5,6.1l-11.8,24.9h0c-.7,1.8,1.2,3.4,3.1,3.4h12.1s-4.2-1.6-3.3-4.1c.6-1.3,1.2-2.4,1.3-2.6h13.9c.2.4,1.6,3.2,2.6,5.1h0c.5,1,1.7,1.7,2.6,1.7h13.3s-4.8-2.8-6.3-5.7ZM140,43.6c.4-.9,3.2-7.5,3.9-9,.7,1.5,3.5,8.1,3.9,9h-7.8Z"/>
      <path class="st0" d="M57.5,23.3h-13.3s5.4,3.2,5.4,6.3v18.9c0,1.1,0,1.6-6.7,1.6s-6.5-.5-6.5-1.6v-21.8c0-1.9-1.6-3.4-3.5-3.4h-13.3s5.4,3.2,5.4,6.3v18c0,9.1,8.6,10.3,18,10.3s18.1-1.8,18.1-10.3v-21c0-1.9-1.6-3.4-3.5-3.4Z"/>
      <path class="st0" d="M116.4,51.4v-20.3h8.6c2,0,3.5-1.5,3.5-3.4v-7.4s-3.3,3-6.6,3h-40.3c-11.5,0-16.9,1.5-16.9,10.4s2.1,9.5,12.6,10.1l4.5.2c4.6.2,4.9.4,5.4.7.5.3,1.3,1.3,1.3,2,0,1.5-.5,2.4-1.4,2.9h0s0,0,0,0c-.6.3-4.3.3-5.6.3h-10.4c-3.4,0-6.9-5.1-6.9-5.1v9.5c0,1.9,1.6,3.4,3.5,3.4h15.2c10.6,0,15.8-1.8,15.8-10.6s-4.2-10.2-16.7-10.8h-.3c-6.5-.3-6.8-.4-6.8-2.7s.7-2,1.4-2.3c.7-.3.8-.3,5.3-.3h23.4v23.2c0,1.9,1.6,3.4,3.5,3.4h13.9s-6-3.2-6-6.3Z"/>
    </g>
    <g>
      <path class="st0" d="M247.4,27.6c.6,0,1.1.2,1.5.6.4.4.6.9.6,1.5s-.2,1.1-.6,1.5c-.4.4-.9.6-1.5.6s-1.1-.2-1.5-.6c-.4-.4-.6-.9-.6-1.5s.2-1.1.6-1.5c.4-.4.9-.6,1.5-.6M249.9,29.7c0-.7-.2-1.3-.7-1.8-.5-.5-1.1-.7-1.7-.7s-1.2.2-1.7.7c-.5.5-.7,1.1-.7,1.8s.2,1.3.7,1.8c.5.5,1.1.7,1.7.7s1.3-.2,1.7-.7c.5-.5.7-1.1.7-1.8M248.1,29.2c0,.2,0,.4-.3.4,0,0-.3,0-.4,0h-.4v-1h.4c.3,0,.5,0,.6.1.1,0,.2.2.2.4M246.4,28.4v2.7h.5v-1.1h.4c.2,0,.4,0,.5,0,.2.1.3.3.3.6v.2h0c0,.1,0,.1,0,.1h.4,0c0,0,0-.1,0-.2,0,0,0-.1,0-.2v-.2c0-.1,0-.3-.1-.4,0-.1-.2-.2-.5-.3.2,0,.3,0,.4-.1.2-.1.3-.3.3-.5s-.1-.6-.4-.7c-.2,0-.4,0-.7,0h-.9Z"/>
      <g>
        <g>
          <path class="st0" d="M238.5,43.8c-2.4,2.3-4,4.7-4.7,7.4,2.9-.9,5.6-2.4,7.8-4.5,2.3-2.2,3.7-4.9,4-7.5-2.6,1.1-5,2.7-7,4.6Z"/>
          <path class="st0" d="M225.6,35c1.8-1.8,3.2-3.8,4-5.8-3.4.8-6.6,2.4-9.1,4.9-1.9,1.9-3.2,4.1-3.8,6.3,3.5-1.1,6.3-2.9,8.8-5.4Z"/>
          <path class="st0" d="M237.2,42.3c2.3-2.3,5.2-4.1,8.3-5.3-.3-2.6-1.8-4.8-4.2-6.3-2.7-1.7-6.1-2.3-9.5-1.9-.9,2.8-2.6,5.4-4.9,7.7-2.8,2.8-6.4,4.9-10.4,6.1,0,.3,0,.6,0,.9.3,2.7,1.8,5,4.3,6.5,3.1,1.9,7.1,2.4,11.1,1.7.7-3.3,2.5-6.6,5.4-9.3Z"/>
        </g>
        <path class="st0" d="M219.8,51.8c-3-1.9-4.8-4.8-5.2-8.1h0s-.4-.7-4.7-.8c-4.3,0-6.3,2.4-6.3,2.4,0,0,.8-1.9-1.9-4.1-2.2-1.7-8.7-.7-8.7-.7,0,0,1.6-1.7,5.6-2.6,4.1-.9,5.8,1.1,10.2.4,3.2-.5,6.1-1.6,7.5-2.2.7-1.3,1.7-2.5,2.8-3.6,1.5-1.5,3.3-2.7,5.3-3.7-1.6,0-3.9,0-5.3-.6-2.4-1.1-6-1.6-8.2-1.3-2.2.2-6.1,2.2-6.1,2.2,0,0,3.9,0,3.6,2.4-.3,2.5-4,2.5-6.5,1.5-2.5-1-5.1-2.2-7.9-2.1-4.2.1-6.8,2.3-6.8,2.3,0,0,4.8-.9,4.7,2.1,0,3.2-4.3,3.9-6.2,2.6-2.6-1.7-4.9-2.4-8.4-1.5-3.5.9-5.7,3.7-10,4.2-4.2.5-6.1-1-6.1-1,0,0,3.4,4.8,9.9,4.4,6.5-.4,7.6-2.1,9.2-1.7,1.5.4,2.1,2,1.2,3.3-1,1.2-3.8,1-3.8,1,0,0,3.5,2.8,8.4,2.1,4.9-.7,6.6-2.5,9.6-2.8,2.9-.3,4.7,2.5,2.3,4.7-1.8,1.6-5.1.4-5.1.4,0,0,1.4,4,6.6,3.3,5.1-.8,8-3.7,12-3.9,2.7-.1,6.3.8,8.5,1.6,0,0-.1,0-.2,0Z"/>
      </g>
    </g>
  </g>
  <polygon class="st0" points="25 69.1 25 93.8 30.6 93.8 30.6 84.2 38.7 84.2 38.7 80 30.6 80 30.6 73.5 40.8 73.5 40.8 69.1 25 69.1"/>
  <g>
    <path class="st0" d="M61.3,81.5v-.3c0-4.8-2.6-8.1-6.9-8.1s-6.9,3.1-6.9,8.1v.3c0,5,2.9,8.1,6.9,8.1s6.8-3.2,6.8-8.2M41.7,81.6v-.3c0-7.3,5.4-12.5,12.7-12.5s12.7,5,12.7,12.4v.3c0,7.3-5,12.7-12.7,12.7s-12.7-5.3-12.7-12.5"/>
    <path class="st0" d="M70.3,84.1v-15h5.6v14.7c0,4.1,1.2,5.9,4.6,5.9s4.8-1.6,4.8-6.1v-14.5h5.6v14.8c0,6.7-3.8,10.2-10.4,10.2s-10.2-3.4-10.2-10"/>
  </g>
  <polygon class="st0" points="111.2 69.1 111.2 85.3 101.8 69.1 95.3 69.1 95.3 93.8 100.3 93.8 100.3 76.2 110.6 93.8 116.2 93.8 116.2 69.1 111.2 69.1"/>
  <path class="st0" d="M128.7,89.4c5,0,7.3-2.8,7.3-7.9v-.3c0-5.1-2.2-7.8-7.4-7.8h-2.2v16h2.3ZM120.8,69.1h8.1c8.7,0,12.9,4.7,12.9,12.1v.3c0,7.4-4.3,12.3-13,12.3h-8v-24.7Z"/>
  <path class="st0" d="M153.6,73.7l3.2,10.7h-6.5l3.3-10.7ZM150.3,69.1l-8.1,24.7h5.2l1.7-5.5h8.9l1.7,5.5h5.8l-8-24.7h-7.3Z"/>
  <polygon class="st0" points="163.9 69.1 163.9 73.5 170.5 73.5 170.5 93.8 176.2 93.8 176.2 73.5 182.8 73.5 182.8 69.1 163.9 69.1"/>
  <rect class="st0" x="185.4" y="69.1" width="5.6" height="24.7"/>
  <path class="st0" d="M213.9,81.5v-.3c0-4.8-2.6-8.1-6.9-8.1s-6.9,3.1-6.9,8.1v.3c0,5,2.9,8.1,6.9,8.1s6.8-3.2,6.8-8.2M194.4,81.6v-.3c0-7.3,5.4-12.5,12.7-12.5s12.7,5,12.7,12.4v.3c0,7.3-5,12.7-12.7,12.7s-12.7-5.3-12.7-12.5"/>
  <polygon class="st0" points="239 69.1 239 85.3 229.7 69.1 223.2 69.1 223.2 93.8 228.1 93.8 228.1 76.2 238.4 93.8 244 93.8 244 69.1 239 69.1"/>
</svg>